<?xml version="1.0" encoding="utf-8"?>
<!-- Generator: Adobe Illustrator 21.1.0, SVG Export Plug-In . SVG Version: 6.00 Build 0)  -->
<svg version="1.1" id="Layer_1" xmlns="http://www.w3.org/2000/svg" xmlns:xlink="http://www.w3.org/1999/xlink" x="0px" y="0px"
	 viewBox="0 0 310.4 270.8" style="enable-background:new 0 0 310.4 270.8;" xml:space="preserve">
<style type="text/css">
	.st0{fill:#1B958A;}
</style>
<path class="st0" d="M300.5,61.1c-1.2-3.3-5-4.9-8.3-3.5c-2.4,1-3.8,3.3-3.8,5.7c0,0.7,0.1,1.5,0.4,2.2c5.9,15.6,9.1,32.6,9.1,50.3
	c0,72.5-54.1,132.4-124.1,141.6l0-66.7c4.3-0.8,8.3-1.9,12.4-3.3l0,56c57.5-14,100.2-65.8,100.2-127.6c0-49.5-27.4-92.6-67.8-115
	c-3.1-1.7-7-0.5-8.5,2.7c-0.4,0.9-0.6,1.8-0.6,2.7c0,2.2,1.2,4.3,3.2,5.4c36.6,20.3,61.4,59.3,61.4,104.1
	c0,50.3-31.2,93.3-75.3,110.7l0-49.7c7.7-2.4,13.4-9.6,13.4-18.1c0-7-3.6-13.2-9.3-16.4c4.5-42.9,24-31.6,24-45.2v-8
	c0-20.5-47.4-87.2-69.5-88.8c-0.7,0-1.4-0.1-2-0.1c-0.7,0-1.4,0-2.1,0.1C131,1.9,83.6,68.5,83.6,89v8c0,13.6,19.5,2.3,24,45.2
	c-5.7,3.3-9.3,9.4-9.3,16.4c0,8.5,5.7,15.7,13.4,18.1v49.7C67.5,209,36.3,166,36.3,115.7c0-44.8,24.8-83.8,61.4-104.1
	c2.9-1.6,4-5.2,2.5-8.2C99.2,1.3,97,0,94.7,0c-1,0-2,0.2-3,0.8c-40.4,22.4-67.8,65.5-67.8,115c0,61.8,42.7,113.6,100.2,127.6l0-56
	c4.1,1.4,8.2,2.5,12.4,3.3v66.7c-70-9.2-124.1-69.1-124.1-141.6c0-17.7,3.2-34.6,9.1-50.3c1.2-3.1-0.3-6.6-3.4-7.9
	c-0.8-0.3-1.6-0.5-2.4-0.5c-2.5,0-4.9,1.5-5.8,4C3.5,78.1,0,96.5,0,115.7c0,83.6,66.1,151.8,148.9,155.1v-78.6
	c2.2,0.1,6.3,0.2,6.3,0.2s4.1-0.1,6.3-0.2l0,78.6c82.8-3.3,148.9-71.5,148.9-155.1C310.4,96.5,306.9,78.1,300.5,61.1z M183.8,149.6
	c2.3-2.3,5.5-3.7,9-3.7c3.5,0,6.7,1.4,9,3.7c2.3,2.3,3.7,5.5,3.7,9c0,3.5-1.4,6.7-3.7,9c-2.3,2.3-5.5,3.7-9,3.7
	c-3.5,0-6.7-1.4-9-3.7c-2.3-2.3-3.7-5.5-3.7-9C180.1,155.1,181.5,151.9,183.8,149.6z M126.6,167.7c-2.3,2.3-5.5,3.7-9,3.7
	c-3.5,0-6.7-1.4-9-3.7c-2.3-2.3-3.7-5.5-3.7-9c0-3.5,1.4-6.7,3.7-9c2.3-2.3,5.5-3.7,9-3.7c3.5,0,6.7,1.4,9,3.7
	c2.3,2.3,3.7,5.5,3.7,9C130.3,162.2,128.9,165.3,126.6,167.7z"/>
</svg>
